<svg width="89" height="110" viewBox="0 0 89 110" fill="none" xmlns="http://www.w3.org/2000/svg">
<g filter="url(#filter0_d)">
<path d="M31.4149 13.9772C31.4149 13.7475 31.131 13.6394 30.9782 13.8109L2.25332 46.0553C2.09016 46.2384 2 46.4752 2 46.7204V56.9948C2 57.2257 2.28619 57.3332 2.43818 57.1594L24.2533 32.218C24.4053 32.0442 24.6915 32.1517 24.6915 32.3825V82.7512C24.6915 82.9965 24.7816 83.2333 24.9448 83.4164L30.9782 90.1891C31.131 90.3606 31.4149 90.2525 31.4149 90.0228V13.9772Z" fill="white"/>
<path d="M51.5851 90.0228C51.5851 90.2525 51.869 90.3606 52.0218 90.1891L80.7467 57.9447C80.9098 57.7616 81 57.5248 81 57.2795V47.0052C81 46.7743 80.7138 46.6668 80.5618 46.8406L58.7467 71.7821C58.5947 71.9558 58.3085 71.8483 58.3085 71.6175V21.2488C58.3085 21.0035 58.2184 20.7667 58.0552 20.5836L52.0218 13.8109C51.869 13.6394 51.5851 13.7475 51.5851 13.9772V90.0228Z" fill="white"/>
<path d="M38.1383 6.15441C38.1383 5.90912 38.2285 5.67238 38.3916 5.48923L41.1267 2.41908C41.3255 2.19587 41.6745 2.19587 41.8733 2.41908L44.6084 5.48923C44.7715 5.67238 44.8617 5.90912 44.8617 6.15441V97.8456C44.8617 98.0909 44.7715 98.3276 44.6084 98.5108L41.8733 101.581C41.6745 101.804 41.3255 101.804 41.1267 101.581L38.3916 98.5108C38.2285 98.3276 38.1383 98.0909 38.1383 97.8456V6.15441Z" fill="white"/>
</g>
<defs>
<filter id="filter0_d" x="0" y="0.251678" width="89" height="109.497" filterUnits="userSpaceOnUse" color-interpolation-filters="sRGB">
<feFlood flood-opacity="0" result="BackgroundImageFix"/>
<feColorMatrix in="SourceAlpha" type="matrix" values="0 0 0 0 0 0 0 0 0 0 0 0 0 0 0 0 0 0 127 0" result="hardAlpha"/>
<feOffset dx="3" dy="3"/>
<feGaussianBlur stdDeviation="2.5"/>
<feComposite in2="hardAlpha" operator="out"/>
<feColorMatrix type="matrix" values="0 0 0 0 0 0 0 0 0 0 0 0 0 0 0 0 0 0 0.35 0"/>
<feBlend mode="normal" in2="BackgroundImageFix" result="effect1_dropShadow"/>
<feBlend mode="normal" in="SourceGraphic" in2="effect1_dropShadow" result="shape"/>
</filter>
</defs>
</svg>
